<svg height="3070" width="720" xmlns="http://www.w3.org/2000/svg">
<rect height="3070" fill="#555" width="720"></rect>
<text fill="#7f7" font-family="Courier New" font-size="12" xml:space="preserve">
<tspan x="10" y="26">13 megabytes installed</tspan>
<tspan x="10" y="42"></tspan>
<tspan x="10" y="58">node_modules</tspan>
<tspan x="10" y="74">└─┬ nodemcu-tool@2.0.4 </tspan>
<tspan x="10" y="90">  ├── cli-progress@1.4.0 </tspan>
<tspan x="10" y="106">  ├── colors@1.1.2 </tspan>
<tspan x="10" y="122">  ├─┬ commander@2.9.0 </tspan>
<tspan x="10" y="138">  │ └── graceful-readlink@1.0.1 </tspan>
<tspan x="10" y="154">  ├── logging-facility@1.1.0 </tspan>
<tspan x="10" y="170">  ├─┬ prompt@0.2.14 </tspan>
<tspan x="10" y="186">  │ ├── pkginfo@0.4.0 </tspan>
<tspan x="10" y="202">  │ ├─┬ read@1.0.7 </tspan>
<tspan x="10" y="218">  │ │ └── mute-stream@0.0.7 </tspan>
<tspan x="10" y="234">  │ ├── revalidator@0.1.8 </tspan>
<tspan x="10" y="250">  │ ├─┬ utile@0.2.1 </tspan>
<tspan x="10" y="266">  │ │ ├── async@0.2.10 </tspan>
<tspan x="10" y="282">  │ │ ├── deep-equal@1.0.1 </tspan>
<tspan x="10" y="298">  │ │ ├── i@0.3.5 </tspan>
<tspan x="10" y="314">  │ │ ├─┬ mkdirp@0.5.1 </tspan>
<tspan x="10" y="330">  │ │ │ └── minimist@0.0.8 </tspan>
<tspan x="10" y="346">  │ │ ├── ncp@0.4.2 </tspan>
<tspan x="10" y="362">  │ │ └─┬ rimraf@2.6.1 </tspan>
<tspan x="10" y="378">  │ │   └─┬ glob@7.1.1 </tspan>
<tspan x="10" y="394">  │ │     ├── fs.realpath@1.0.0 </tspan>
<tspan x="10" y="410">  │ │     ├─┬ inflight@1.0.6 </tspan>
<tspan x="10" y="426">  │ │     │ └── wrappy@1.0.2 </tspan>
<tspan x="10" y="442">  │ │     ├── inherits@2.0.3 </tspan>
<tspan x="10" y="458">  │ │     ├─┬ minimatch@3.0.3 </tspan>
<tspan x="10" y="474">  │ │     │ └─┬ brace-expansion@1.1.7 </tspan>
<tspan x="10" y="490">  │ │     │   ├── balanced-match@0.4.2 </tspan>
<tspan x="10" y="506">  │ │     │   └── concat-map@0.0.1 </tspan>
<tspan x="10" y="522">  │ │     ├── once@1.4.0 </tspan>
<tspan x="10" y="538">  │ │     └── path-is-absolute@1.0.1 </tspan>
<tspan x="10" y="554">  │ └─┬ winston@0.8.3 </tspan>
<tspan x="10" y="570">  │   ├── colors@0.6.2 </tspan>
<tspan x="10" y="586">  │   ├── cycle@1.0.3 </tspan>
<tspan x="10" y="602">  │   ├── eyes@0.1.8 </tspan>
<tspan x="10" y="618">  │   ├── isstream@0.1.2 </tspan>
<tspan x="10" y="634">  │   ├── pkginfo@0.3.1 </tspan>
<tspan x="10" y="650">  │   └── stack-trace@0.0.9 </tspan>
<tspan x="10" y="666">  └─┬ serialport@4.0.7 </tspan>
<tspan x="10" y="682">    ├── bindings@1.2.1 </tspan>
<tspan x="10" y="698">    ├─┬ debug@2.6.4 </tspan>
<tspan x="10" y="714">    │ └── ms@0.7.3 </tspan>
<tspan x="10" y="730">    ├─┬ lie@3.1.1 </tspan>
<tspan x="10" y="746">    │ └── immediate@3.0.6 </tspan>
<tspan x="10" y="762">    ├── nan@2.6.2 </tspan>
<tspan x="10" y="778">    ├─┬ node-pre-gyp@0.6.32 </tspan>
<tspan x="10" y="794">    │ ├─┬ mkdirp@0.5.1 </tspan>
<tspan x="10" y="810">    │ │ └── minimist@0.0.8 </tspan>
<tspan x="10" y="826">    │ ├─┬ nopt@3.0.6 </tspan>
<tspan x="10" y="842">    │ │ └── abbrev@1.0.9 </tspan>
<tspan x="10" y="858">    │ ├─┬ npmlog@4.0.1 </tspan>
<tspan x="10" y="874">    │ │ ├─┬ are-we-there-yet@1.1.2 </tspan>
<tspan x="10" y="890">    │ │ │ ├── delegates@1.0.0 </tspan>
<tspan x="10" y="906">    │ │ │ └─┬ readable-stream@2.2.2 </tspan>
<tspan x="10" y="922">    │ │ │   ├── buffer-shims@1.0.0 </tspan>
<tspan x="10" y="938">    │ │ │   ├── core-util-is@1.0.2 </tspan>
<tspan x="10" y="954">    │ │ │   ├── inherits@2.0.3 </tspan>
<tspan x="10" y="970">    │ │ │   ├── isarray@1.0.0 </tspan>
<tspan x="10" y="986">    │ │ │   ├── process-nextick-args@1.0.7 </tspan>
<tspan x="10" y="1002">    │ │ │   ├── string_decoder@0.10.31 </tspan>
<tspan x="10" y="1018">    │ │ │   └── util-deprecate@1.0.2 </tspan>
<tspan x="10" y="1034">    │ │ ├── console-control-strings@1.1.0 </tspan>
<tspan x="10" y="1050">    │ │ ├─┬ gauge@2.7.2 </tspan>
<tspan x="10" y="1066">    │ │ │ ├── aproba@1.0.4 </tspan>
<tspan x="10" y="1082">    │ │ │ ├── has-unicode@2.0.1 </tspan>
<tspan x="10" y="1098">    │ │ │ ├── object-assign@4.1.0 </tspan>
<tspan x="10" y="1114">    │ │ │ ├── signal-exit@3.0.2 </tspan>
<tspan x="10" y="1130">    │ │ │ ├─┬ string-width@1.0.2 </tspan>
<tspan x="10" y="1146">    │ │ │ │ ├── code-point-at@1.1.0 </tspan>
<tspan x="10" y="1162">    │ │ │ │ └─┬ is-fullwidth-code-point@1.0.0 </tspan>
<tspan x="10" y="1178">    │ │ │ │   └── number-is-nan@1.0.1 </tspan>
<tspan x="10" y="1194">    │ │ │ ├─┬ strip-ansi@3.0.1 </tspan>
<tspan x="10" y="1210">    │ │ │ │ └── ansi-regex@2.0.0 </tspan>
<tspan x="10" y="1226">    │ │ │ ├── supports-color@0.2.0 </tspan>
<tspan x="10" y="1242">    │ │ │ └── wide-align@1.1.0 </tspan>
<tspan x="10" y="1258">    │ │ └── set-blocking@2.0.0 </tspan>
<tspan x="10" y="1274">    │ ├─┬ rc@1.1.6 </tspan>
<tspan x="10" y="1290">    │ │ ├── deep-extend@0.4.1 </tspan>
<tspan x="10" y="1306">    │ │ ├── ini@1.3.4 </tspan>
<tspan x="10" y="1322">    │ │ ├── minimist@1.2.0 </tspan>
<tspan x="10" y="1338">    │ │ └── strip-json-comments@1.0.4 </tspan>
<tspan x="10" y="1354">    │ ├─┬ request@2.79.0 </tspan>
<tspan x="10" y="1370">    │ │ ├── aws-sign2@0.6.0 </tspan>
<tspan x="10" y="1386">    │ │ ├── aws4@1.5.0 </tspan>
<tspan x="10" y="1402">    │ │ ├── caseless@0.11.0 </tspan>
<tspan x="10" y="1418">    │ │ ├─┬ combined-stream@1.0.5 </tspan>
<tspan x="10" y="1434">    │ │ │ └── delayed-stream@1.0.0 </tspan>
<tspan x="10" y="1450">    │ │ ├── extend@3.0.0 </tspan>
<tspan x="10" y="1466">    │ │ ├── forever-agent@0.6.1 </tspan>
<tspan x="10" y="1482">    │ │ ├─┬ form-data@2.1.2 </tspan>
<tspan x="10" y="1498">    │ │ │ └── asynckit@0.4.0 </tspan>
<tspan x="10" y="1514">    │ │ ├─┬ har-validator@2.0.6 </tspan>
<tspan x="10" y="1530">    │ │ │ ├─┬ chalk@1.1.3 </tspan>
<tspan x="10" y="1546">    │ │ │ │ ├── ansi-styles@2.2.1 </tspan>
<tspan x="10" y="1562">    │ │ │ │ ├── escape-string-regexp@1.0.5 </tspan>
<tspan x="10" y="1578">    │ │ │ │ ├─┬ has-ansi@2.0.0 </tspan>
<tspan x="10" y="1594">    │ │ │ │ │ └── ansi-regex@2.0.0 </tspan>
<tspan x="10" y="1610">    │ │ │ │ ├─┬ strip-ansi@3.0.1 </tspan>
<tspan x="10" y="1626">    │ │ │ │ │ └── ansi-regex@2.0.0 </tspan>
<tspan x="10" y="1642">    │ │ │ │ └── supports-color@2.0.0 </tspan>
<tspan x="10" y="1658">    │ │ │ ├─┬ is-my-json-valid@2.15.0 </tspan>
<tspan x="10" y="1674">    │ │ │ │ ├── generate-function@2.0.0 </tspan>
<tspan x="10" y="1690">    │ │ │ │ ├─┬ generate-object-property@1.2.0 </tspan>
<tspan x="10" y="1706">    │ │ │ │ │ └── is-property@1.0.2 </tspan>
<tspan x="10" y="1722">    │ │ │ │ ├── jsonpointer@4.0.0 </tspan>
<tspan x="10" y="1738">    │ │ │ │ └── xtend@4.0.1 </tspan>
<tspan x="10" y="1754">    │ │ │ └─┬ pinkie-promise@2.0.1 </tspan>
<tspan x="10" y="1770">    │ │ │   └── pinkie@2.0.4 </tspan>
<tspan x="10" y="1786">    │ │ ├─┬ hawk@3.1.3 </tspan>
<tspan x="10" y="1802">    │ │ │ ├── boom@2.10.1 </tspan>
<tspan x="10" y="1818">    │ │ │ ├── cryptiles@2.0.5 </tspan>
<tspan x="10" y="1834">    │ │ │ ├── hoek@2.16.3 </tspan>
<tspan x="10" y="1850">    │ │ │ └── sntp@1.0.9 </tspan>
<tspan x="10" y="1866">    │ │ ├─┬ http-signature@1.1.1 </tspan>
<tspan x="10" y="1882">    │ │ │ ├── assert-plus@0.2.0 </tspan>
<tspan x="10" y="1898">    │ │ │ ├─┬ jsprim@1.3.1 </tspan>
<tspan x="10" y="1914">    │ │ │ │ ├── extsprintf@1.0.2 </tspan>
<tspan x="10" y="1930">    │ │ │ │ ├── json-schema@0.2.3 </tspan>
<tspan x="10" y="1946">    │ │ │ │ └── verror@1.3.6 </tspan>
<tspan x="10" y="1962">    │ │ │ └─┬ sshpk@1.10.1 </tspan>
<tspan x="10" y="1978">    │ │ │   ├── asn1@0.2.3 </tspan>
<tspan x="10" y="1994">    │ │ │   ├── assert-plus@1.0.0 </tspan>
<tspan x="10" y="2010">    │ │ │   ├── bcrypt-pbkdf@1.0.0 </tspan>
<tspan x="10" y="2026">    │ │ │   ├── dashdash@1.14.1 </tspan>
<tspan x="10" y="2042">    │ │ │   ├── ecc-jsbn@0.1.1 </tspan>
<tspan x="10" y="2058">    │ │ │   ├── getpass@0.1.6 </tspan>
<tspan x="10" y="2074">    │ │ │   ├── jodid25519@1.0.2 </tspan>
<tspan x="10" y="2090">    │ │ │   ├── jsbn@0.1.0 </tspan>
<tspan x="10" y="2106">    │ │ │   └── tweetnacl@0.14.4 </tspan>
<tspan x="10" y="2122">    │ │ ├── is-typedarray@1.0.0 </tspan>
<tspan x="10" y="2138">    │ │ ├── isstream@0.1.2 </tspan>
<tspan x="10" y="2154">    │ │ ├── json-stringify-safe@5.0.1 </tspan>
<tspan x="10" y="2170">    │ │ ├─┬ mime-types@2.1.13 </tspan>
<tspan x="10" y="2186">    │ │ │ └── mime-db@1.25.0 </tspan>
<tspan x="10" y="2202">    │ │ ├── oauth-sign@0.8.2 </tspan>
<tspan x="10" y="2218">    │ │ ├── qs@6.3.0 </tspan>
<tspan x="10" y="2234">    │ │ ├── stringstream@0.0.5 </tspan>
<tspan x="10" y="2250">    │ │ ├─┬ tough-cookie@2.3.2 </tspan>
<tspan x="10" y="2266">    │ │ │ └── punycode@1.4.1 </tspan>
<tspan x="10" y="2282">    │ │ ├── tunnel-agent@0.4.3 </tspan>
<tspan x="10" y="2298">    │ │ └── uuid@3.0.1 </tspan>
<tspan x="10" y="2314">    │ ├─┬ rimraf@2.5.4 </tspan>
<tspan x="10" y="2330">    │ │ └─┬ glob@7.1.1 </tspan>
<tspan x="10" y="2346">    │ │   ├── fs.realpath@1.0.0 </tspan>
<tspan x="10" y="2362">    │ │   ├─┬ inflight@1.0.6 </tspan>
<tspan x="10" y="2378">    │ │   │ └── wrappy@1.0.2 </tspan>
<tspan x="10" y="2394">    │ │   ├── inherits@2.0.3 </tspan>
<tspan x="10" y="2410">    │ │   ├─┬ minimatch@3.0.3 </tspan>
<tspan x="10" y="2426">    │ │   │ └─┬ brace-expansion@1.1.6 </tspan>
<tspan x="10" y="2442">    │ │   │   ├── balanced-match@0.4.2 </tspan>
<tspan x="10" y="2458">    │ │   │   └── concat-map@0.0.1 </tspan>
<tspan x="10" y="2474">    │ │   ├─┬ once@1.4.0 </tspan>
<tspan x="10" y="2490">    │ │   │ └── wrappy@1.0.2 </tspan>
<tspan x="10" y="2506">    │ │   └── path-is-absolute@1.0.1 </tspan>
<tspan x="10" y="2522">    │ ├── semver@5.3.0 </tspan>
<tspan x="10" y="2538">    │ ├─┬ tar@2.2.1 </tspan>
<tspan x="10" y="2554">    │ │ ├── block-stream@0.0.9 </tspan>
<tspan x="10" y="2570">    │ │ ├─┬ fstream@1.0.10 </tspan>
<tspan x="10" y="2586">    │ │ │ └── graceful-fs@4.1.11 </tspan>
<tspan x="10" y="2602">    │ │ └── inherits@2.0.3 </tspan>
<tspan x="10" y="2618">    │ └─┬ tar-pack@3.3.0 </tspan>
<tspan x="10" y="2634">    │   ├─┬ debug@2.2.0 </tspan>
<tspan x="10" y="2650">    │   │ └── ms@0.7.1 </tspan>
<tspan x="10" y="2666">    │   ├─┬ fstream@1.0.10 </tspan>
<tspan x="10" y="2682">    │   │ ├── graceful-fs@4.1.11 </tspan>
<tspan x="10" y="2698">    │   │ └── inherits@2.0.3 </tspan>
<tspan x="10" y="2714">    │   ├─┬ fstream-ignore@1.0.5 </tspan>
<tspan x="10" y="2730">    │   │ ├── inherits@2.0.3 </tspan>
<tspan x="10" y="2746">    │   │ └─┬ minimatch@3.0.3 </tspan>
<tspan x="10" y="2762">    │   │   └─┬ brace-expansion@1.1.6 </tspan>
<tspan x="10" y="2778">    │   │     ├── balanced-match@0.4.2 </tspan>
<tspan x="10" y="2794">    │   │     └── concat-map@0.0.1 </tspan>
<tspan x="10" y="2810">    │   ├─┬ once@1.3.3 </tspan>
<tspan x="10" y="2826">    │   │ └── wrappy@1.0.2 </tspan>
<tspan x="10" y="2842">    │   ├─┬ readable-stream@2.1.5 </tspan>
<tspan x="10" y="2858">    │   │ ├── buffer-shims@1.0.0 </tspan>
<tspan x="10" y="2874">    │   │ ├── core-util-is@1.0.2 </tspan>
<tspan x="10" y="2890">    │   │ ├── inherits@2.0.3 </tspan>
<tspan x="10" y="2906">    │   │ ├── isarray@1.0.0 </tspan>
<tspan x="10" y="2922">    │   │ ├── process-nextick-args@1.0.7 </tspan>
<tspan x="10" y="2938">    │   │ ├── string_decoder@0.10.31 </tspan>
<tspan x="10" y="2954">    │   │ └── util-deprecate@1.0.2 </tspan>
<tspan x="10" y="2970">    │   └── uid-number@0.0.6 </tspan>
<tspan x="10" y="2986">    └─┬ object.assign@4.0.4 </tspan>
<tspan x="10" y="3002">      ├─┬ define-properties@1.1.2 </tspan>
<tspan x="10" y="3018">      │ └── foreach@2.0.5 </tspan>
<tspan x="10" y="3034">      ├── function-bind@1.1.0 </tspan>
<tspan x="10" y="3050">      └── object-keys@1.0.11</tspan>
</text>
</svg>
